<?xml version="1.0" encoding="UTF-8"?>
<svg id="Capa_2" data-name="Capa 2" xmlns="http://www.w3.org/2000/svg" viewBox="0 0 44.27 43.48">
  <defs>
    <style>
      .cls-1 {
        fill: #707070;
      }
    </style>
  </defs>
  <g id="Capa_1-2" data-name="Capa 1">
    <path class="cls-1" d="m42.27,35.09c1.92,1.92,1.92,5.04,0,6.95-.96.96-2.22,1.44-3.47,1.44s-2.52-.48-3.48-1.44l-13.26-13.26-13.75,13.11c-1.97,1.87-5.08,1.8-6.95-.16-.91-.95-1.36-2.17-1.36-3.39,0-1.3.51-2.59,1.52-3.56l13.58-12.95L1.66,8.39C-.26,6.47-.26,3.36,1.66,1.44c.96-.96,2.22-1.44,3.48-1.44s2.52.48,3.48,1.44l13.61,13.61L35.96,1.93c1.96-1.87,5.08-1.8,6.95.16.91.95,1.36,2.18,1.36,3.39,0,1.3-.5,2.59-1.52,3.56l-13.58,12.95,13.1,13.1Z"/>
  </g>
</svg>