<svg xmlns="http://www.w3.org/2000/svg" width="427.429" height="368.031" viewBox="0 0 427.429 368.031">
  <defs>
    <style>
      .cls-1, .cls-5, .cls-6 {
        fill: #fff;
      }

      .cls-1 {
        stroke: #707070;
        stroke-width: 3px;
      }

      .cls-2, .cls-3 {
        fill: #e1338b;
      }

      .cls-2 {
        stroke: #fff;
        font-size: 42px;
        font-family: SegoeUI, Segoe UI;
      }

      .cls-4 {
        fill: #707070;
      }

      .cls-5 {
        font-size: 92px;
        font-family: OriginTechDemoRegular, Origin Tech Demo;
      }

      .cls-7 {
        stroke: none;
      }

      .cls-8 {
        fill: none;
      }
    </style>
  </defs>
  <g id="formulario" transform="translate(-504 -265.969)">
    <g id="Componente_1_2" data-name="Componente 1 – 2" transform="translate(507 410)">
      <g id="Rectángulo_3" data-name="Rectángulo 3" class="cls-1">
        <rect class="cls-7" width="424" height="118" rx="2"/>
        <rect class="cls-8" x="1.5" y="1.5" width="421" height="115" rx="0.5"/>
      </g>
      <text id="comment_here" data-name="comment here" class="cls-2" transform="translate(55.739 61.5)"><tspan x="0" y="0">comment here</tspan></text>
    </g>
    <path id="button" class="cls-3" d="M0,0H420a0,0,0,0,1,0,0V18a88,88,0,0,1-88,88H93A93,93,0,0,1,0,13V0A0,0,0,0,1,0,0Z" transform="translate(504 528)"/>
    <path id="Trazado_7" data-name="Trazado 7" class="cls-4" d="M94.161,11C48.306,11,11,50.457,11,98.957V269.074c0,48.5,37.306,87.957,83.161,87.957H333.268c45.855,0,83.161-39.457,83.161-87.957V98.957c0-48.5-37.306-87.957-83.161-87.957H94.161m0-11H333.268c52,0,94.161,44.3,94.161,98.957V269.074c0,54.653-42.157,98.957-94.161,98.957H94.161c-52,0-94.161-44.3-94.161-98.957V98.957C0,44.3,42.157,0,94.161,0Z" transform="translate(504 265.969)"/>
    <path id="Trazado_4" data-name="Trazado 4" class="cls-3" d="M27.282,0l7.775,16.842,19.507,1.721-14.7,12.129L44.144,48.6,27.282,39.252,10.421,48.6,14.7,30.692,0,18.562l19.507-1.721Z" transform="translate(534.757 352.156)"/>
    <path id="Trazado_4_-_Contorno" data-name="Trazado 4 - Contorno" class="cls-4" d="M27.282,9.543l-5.115,11.08L10.075,21.689l9.1,7.505-2.75,11.5,10.86-6.019L38.143,40.7l-2.75-11.5,9.1-7.505L32.4,20.623,27.282,9.543m0-9.543,7.775,16.842,19.507,1.721-14.7,12.129L44.144,48.6,27.282,39.252,10.421,48.6,14.7,30.692,0,18.562l19.507-1.721Z" transform="translate(534.757 352.156)"/>
    <path id="Trazado_4-2" data-name="Trazado 4" class="cls-3" d="M27.282,0l7.775,16.842,19.507,1.721-14.7,12.129L44.144,48.6,27.282,39.252,10.421,48.6,14.7,30.692,0,18.562l19.507-1.721Z" transform="translate(606.373 352.156)"/>
    <path id="Trazado_4_-_Contorno-2" data-name="Trazado 4 - Contorno" class="cls-4" d="M27.282,9.543l-5.115,11.08L10.075,21.689l9.1,7.505-2.75,11.5,10.86-6.019L38.143,40.7l-2.75-11.5,9.1-7.505L32.4,20.623,27.282,9.543m0-9.543,7.775,16.842,19.507,1.721-14.7,12.129L44.144,48.6,27.282,39.252,10.421,48.6,14.7,30.692,0,18.562l19.507-1.721Z" transform="translate(606.373 352.156)"/>
    <path id="Trazado_4-3" data-name="Trazado 4" class="cls-3" d="M27.282,0l7.775,16.842,19.507,1.721-14.7,12.129L44.144,48.6,27.282,39.252,10.421,48.6,14.7,30.692,0,18.562l19.507-1.721Z" transform="translate(677.99 352.156)"/>
    <path id="Trazado_4_-_Contorno-3" data-name="Trazado 4 - Contorno" class="cls-4" d="M27.282,9.543l-5.115,11.08L10.075,21.689l9.1,7.505-2.75,11.5,10.86-6.019L38.143,40.7l-2.75-11.5,9.1-7.505L32.4,20.623,27.282,9.543m0-9.543,7.775,16.842,19.507,1.721-14.7,12.129L44.144,48.6,27.282,39.252,10.421,48.6,14.7,30.692,0,18.562l19.507-1.721Z" transform="translate(677.99 352.156)"/>
    <path id="Trazado_4-4" data-name="Trazado 4" class="cls-3" d="M27.282,0l7.775,16.842,19.507,1.721-14.7,12.129L44.144,48.6,27.282,39.252,10.421,48.6,14.7,30.692,0,18.562l19.507-1.721Z" transform="translate(749.606 354.714)"/>
    <path id="Trazado_4_-_Contorno-4" data-name="Trazado 4 - Contorno" class="cls-4" d="M27.282,9.543l-5.115,11.08L10.075,21.689l9.1,7.505-2.75,11.5,10.86-6.019L38.143,40.7l-2.75-11.5,9.1-7.505L32.4,20.623,27.282,9.543m0-9.543,7.775,16.842,19.507,1.721-14.7,12.129L44.144,48.6,27.282,39.252,10.421,48.6,14.7,30.692,0,18.562l19.507-1.721Z" transform="translate(749.606 354.714)"/>
    <path id="Trazado_5" data-name="Trazado 5" class="cls-4" d="M27.282,9.543l-5.115,11.08L10.075,21.689l9.1,7.505-2.75,11.5,10.86-6.019L38.143,40.7l-2.75-11.5,9.1-7.505L32.4,20.623,27.282,9.543m0-9.543,7.775,16.842,19.507,1.721-14.7,12.129L44.144,48.6,27.282,39.252,10.421,48.6,14.7,30.692,0,18.562l19.507-1.721Z" transform="translate(821.222 354.714)"/>
    <text id="SEND" class="cls-5" transform="translate(582.5 607.689)"><tspan x="0" y="0">SEND</tspan></text>
    <path id="SEND_-_Contorno" data-name="SEND - Contorno" class="cls-6" d="M25.484-66.648H60.731L46.115-52.032H25.484a4.952,4.952,0,0,0-3.607,1.469,4.728,4.728,0,0,0-1.5,3.551,5.178,5.178,0,0,0,.67,2.6,4.788,4.788,0,0,0,1.877,1.834,5.258,5.258,0,0,0,2.564.674h15a16.906,16.906,0,0,1,6.779,1.56,25.521,25.521,0,0,1,6.522,4.175l.008.007A21.708,21.708,0,0,1,58.8-29.61a17.059,17.059,0,0,1,1.682,7.438v.5H55.367l-.023-.476a14.39,14.39,0,0,0-5.038-10.007c-3.171-2.934-6.477-4.421-9.826-4.421h-15a10.522,10.522,0,0,1-5.261-1.4,10.384,10.384,0,0,1-3.863-3.768,10.11,10.11,0,0,1-1.393-4.769H5.48v-.5a19.139,19.139,0,0,1,1.477-7.533,19.62,19.62,0,0,1,4.423-6.349,20.216,20.216,0,0,1,6.474-4.314A20.092,20.092,0,0,1,25.484-66.648Zm32.833,1H25.484a18.6,18.6,0,0,0-13.4,5.47A17.785,17.785,0,0,0,6.486-47.512h9.47v.5a9.21,9.21,0,0,0,1.264,4.759,9.4,9.4,0,0,0,3.5,3.408,9.533,9.533,0,0,0,4.767,1.269h15c3.61,0,7.144,1.577,10.506,4.687a15.459,15.459,0,0,1,5.327,10.217h3.164c-.141-4.721-2.278-9.006-6.358-12.743a24.523,24.523,0,0,0-6.262-4.009A15.919,15.919,0,0,0,40.48-40.9h-15a6.247,6.247,0,0,1-3.048-.8,5.774,5.774,0,0,1-2.263-2.214,6.165,6.165,0,0,1-.8-3.1,5.755,5.755,0,0,1,1.807-4.269,5.985,5.985,0,0,1,4.3-1.751H45.7Zm139.259.012h22.856A27.9,27.9,0,0,1,231.2-63.551a29.489,29.489,0,0,1,9.266,6.245l0,0a32.05,32.05,0,0,1,6.962,10.466,32.557,32.557,0,0,1,2.476,12.519,32.394,32.394,0,0,1-3.925,15.7A30.31,30.31,0,0,1,235.278-7.211,27.579,27.579,0,0,1,220.524-3h-9.056V-17.8h8.964a13.3,13.3,0,0,0,10.251-4.891,17.083,17.083,0,0,0,4.337-11.629,16.955,16.955,0,0,0-5-12.433,13.278,13.278,0,0,0-9.491-4.087h-8.056v20.148h-9.556v-28.52h-5.336Zm42.192,9.043a26.875,26.875,0,0,0-19.336-8.043H198.576v4.428h5.336v28.52h7.556V-51.836h9.056a14.245,14.245,0,0,1,10.194,4.375l0,0a17.793,17.793,0,0,1,3.974,5.94,19.187,19.187,0,0,1,1.324,7.2,18.056,18.056,0,0,1-4.587,12.291,14.259,14.259,0,0,1-11,5.229h-7.964V-4h8.056A26.593,26.593,0,0,0,234.75-8.061,29.322,29.322,0,0,0,245.109-19.1a31.405,31.405,0,0,0,3.8-15.217,31.562,31.562,0,0,0-2.4-12.137A31.054,31.054,0,0,0,239.768-56.593ZM129.312-65.411,167.86-31.647V-58.565l14.892-6.41V1.1L161.6-17.437v-5.887L129.312-51.477ZM181.752-1.1V-63.456l-12.892,5.55v28.466L130.312-63.205v11.274L162.6-23.779v5.889ZM70.432-64.9h46.816v14.892H85.324v10.04h32.068L111.655-25.48l-.312.312H87.176v-4.416H74.48v-8.1H70.432Zm45.816,1H71.432v25.22H75.48v8.1h12.7v4.416h22.676l5.068-12.8h-31.6v-12.04h31.924ZM193.8-56.436h6.336v28.612H208.7V.96H193.8Zm5.336,1H194.8V-.04H207.7V-26.824H199.14Zm-73.6,6.4,33.292,29.024v7.217l-18.4-16.1V.5H125.54Zm32.292,29.479L126.54-46.833V-.5h12.892V-31.094l18.4,16.1ZM2.444-44.476H12.529l.022.477c.115,2.466,1.485,4.675,4.073,6.565a13.466,13.466,0,0,0,7.939,2.894h12.88a15.245,15.245,0,0,1,11.022,4.467,14.641,14.641,0,0,1,4.559,10.345h4.423v.5a19.426,19.426,0,0,1-1.477,7.6,19.547,19.547,0,0,1-4.424,6.373A20.216,20.216,0,0,1,45.073-.94,20.092,20.092,0,0,1,37.444.5H6.676V-14.116H37.444a4.876,4.876,0,0,0,3.6-1.51,4.876,4.876,0,0,0,1.51-3.6,4.728,4.728,0,0,0-1.5-3.552,4.952,4.952,0,0,0-3.607-1.468h-15A19.953,19.953,0,0,1,14.817-25.7,20.206,20.206,0,0,1,8.343-30.05a19.833,19.833,0,0,1-4.422-6.383,19.222,19.222,0,0,1-1.477-7.544Zm9.145,1H3.45A17.939,17.939,0,0,0,9.045-30.762a18.518,18.518,0,0,0,13.4,5.514h15a5.985,5.985,0,0,1,4.3,1.751,5.755,5.755,0,0,1,1.807,4.269,5.906,5.906,0,0,1-1.8,4.31,5.906,5.906,0,0,1-4.31,1.8H7.676V-.5H37.444a18.6,18.6,0,0,0,13.4-5.47,17.877,17.877,0,0,0,5.593-12.758h-4.41v-.5a13.71,13.71,0,0,0-4.266-10.131A14.276,14.276,0,0,0,37.444-33.54H24.564a14.438,14.438,0,0,1-8.529-3.086C13.354-38.585,11.86-40.887,11.589-43.476ZM66.66-34.908h5.048v8.1H84.4V-21.3H81.552v6.82h31.924V.408H66.66Zm4.048,1H67.66V-.592h44.816V-13.484H80.552V-22.3H83.4v-3.508h-12.7Z" transform="translate(582.5 607.689)"/>
    <path id="cerrar-icon_8" data-name="cerrar-icon 8" class="cls-4" d="M42.27,35.09a4.914,4.914,0,1,1-6.95,6.95L22.06,28.78,8.31,41.89a4.916,4.916,0,0,1-6.79-7.11L15.1,21.83,1.66,8.39A4.918,4.918,0,0,1,8.62,1.44L22.23,15.05,35.96,1.93a4.916,4.916,0,0,1,6.79,7.11L29.17,21.99Z" transform="translate(841 293)"/>
  </g>
</svg>
